<svg xmlns="http://www.w3.org/2000/svg" xmlns:xlink="http://www.w3.org/1999/xlink" version="1.1" x="0px" y="0px" viewBox="910 550 100 125" enable-background="new 910 550 100 100" xml:space="preserve"><g><path d="M990.99,585.549c0-14.086-13.901-25.547-30.988-25.547c-17.087,0-30.989,11.46-30.989,25.547   c0,3.665,0.92,7.203,2.736,10.516c1.542,2.814,1.88,6.195,0.954,9.528c-1.17,2.689-0.827,5.648,0.945,8.128l14.375,20.118   c2.799,3.917,7.165,6.163,11.979,6.163c4.813,0,9.181-2.246,11.979-6.163l14.375-20.118c1.771-2.479,2.114-5.438,0.944-8.128   c-0.926-3.333-0.588-6.714,0.954-9.528C990.07,592.752,990.99,589.214,990.99,585.549z M966.735,605.815   c0.059,0.765,0.222,1.509,0.473,2.223c-0.244-0.036-0.49-0.062-0.741-0.062c-0.172,0-0.342,0.01-0.511,0.028   C966.101,607.403,966.342,606.643,966.735,605.815z M969.665,608.831c-0.708-1.104-1.085-2.377-1.085-3.706   c0-0.883,0.166-1.74,0.488-2.554c1.58-1.518,3.646-2.604,6.186-3.239c1.133-0.283,2.191-0.435,3.153-0.455   c2.42,1.133,3.977,3.562,3.977,6.248c0,1.509-0.479,2.933-1.379,4.129c-0.647,0.457-1.376,0.8-2.187,0.946   c-0.956,0.172-1.882,0.259-2.752,0.259c-2.643,0-4.446-0.781-6.036-1.471C969.907,608.936,969.786,608.883,969.665,608.831z    M982.589,599.986c1.722,1.2,2.23,3.022,2.356,3.632c-0.109,0.294-0.339,0.87-0.69,1.565c0-0.02,0.001-0.039,0.001-0.059   C984.256,603.238,983.648,601.452,982.589,599.986z M986.612,595.165c-0.778,1.422-1.292,2.966-1.534,4.572   c-1.275-1.499-3.325-2.737-6.452-2.737c-1.172,0-2.46,0.174-3.826,0.515c-3.328,0.832-5.623,2.317-7.2,3.885l-0.005-0.004   c-0.013,0.013-0.021,0.027-0.033,0.041c-0.981,0.984-1.684,1.999-2.179,2.906c-1.409,2.574-1.513,4.832-1.517,4.927   c-0.013,0.328,0.147,0.639,0.422,0.818c0.273,0.181,0.622,0.204,0.918,0.062c0.427-0.203,0.839-0.303,1.261-0.303   c0.842,0,1.714,0.379,2.818,0.857c1.671,0.724,3.75,1.626,6.78,1.626c0.981,0,2.02-0.098,3.085-0.289   c3.232-0.582,5.341-3.373,6.511-5.509c0.816,2.044,0.528,4.199-0.828,6.099l-14.375,20.117c-2.443,3.419-6.254,5.379-10.456,5.379   c-4.202,0-8.013-1.96-10.456-5.379l-14.375-20.117c-1.37-1.917-1.65-4.095-0.806-6.156c1.164,2.144,3.282,4.979,6.542,5.566   c1.065,0.191,2.103,0.289,3.084,0.289c0,0,0,0,0,0c3.03,0,5.11-0.901,6.78-1.626c1.104-0.479,1.977-0.857,2.818-0.857   c0.422,0,0.834,0.1,1.261,0.303c0.296,0.142,0.645,0.118,0.918-0.062c0.274-0.18,0.434-0.49,0.421-0.818   c-0.003-0.095-0.107-2.352-1.516-4.927c-1.293-2.365-3.977-5.469-9.417-6.829c-1.367-0.342-2.655-0.515-3.827-0.515   c-3.166,0-5.227,1.269-6.499,2.793c-0.239-1.626-0.754-3.19-1.542-4.629c-1.663-3.034-2.506-6.269-2.506-9.616   c0-13.054,13.062-23.674,29.116-23.674s29.116,10.62,29.116,23.674C989.118,588.896,988.275,592.131,986.612,595.165z    M954.111,608.006c-0.171-0.02-0.345-0.029-0.52-0.029c-0.271,0-0.537,0.027-0.801,0.07c0.27-0.76,0.434-1.556,0.484-2.37   C953.707,606.557,953.962,607.369,954.111,608.006z M950.891,602.472c0.352,0.835,0.533,1.727,0.533,2.653   c0,1.337-0.385,2.623-1.108,3.739c-0.096,0.041-0.19,0.082-0.287,0.124c-1.59,0.689-3.394,1.471-6.036,1.471   c-0.871,0-1.797-0.087-2.753-0.259c-0.867-0.156-1.639-0.541-2.321-1.05c-0.848-1.18-1.298-2.567-1.298-4.025   c0-2.687,1.557-5.117,3.978-6.249c0.976,0.016,2.053,0.168,3.207,0.456C947.548,600.018,949.5,601.179,950.891,602.472z    M935.75,605.069c-0.321-0.644-0.533-1.175-0.637-1.451c0.125-0.602,0.616-2.353,2.244-3.551   C936.344,601.503,935.761,603.237,935.75,605.069z"/><path d="M954.85,628.695c-0.484-0.182-1.024,0.064-1.205,0.548c-0.181,0.484,0.064,1.024,0.548,1.205   c1.799,0.675,4.082,1.046,6.428,1.046c2.345,0,4.627-0.371,6.424-1.046c0.484-0.181,0.729-0.721,0.548-1.205   c-0.182-0.483-0.721-0.73-1.205-0.548c-1.593,0.598-3.641,0.927-5.767,0.927C958.494,629.622,956.444,629.293,954.85,628.695z"/><path d="M955.302,621.457c0.517,0,0.936-0.419,0.936-0.937c0-1.14,0.522-1.866,0.795-1.866c0.273,0,0.795,0.727,0.795,1.866   c0,1.141-0.522,1.868-0.795,1.868c-0.517,0-0.936,0.419-0.936,0.936c0,0.518,0.419,0.937,0.936,0.937   c1.496,0,2.668-1.643,2.668-3.74c0-2.097-1.172-3.739-2.668-3.739c-1.496,0-2.667,1.643-2.667,3.739   C954.366,621.038,954.785,621.457,955.302,621.457z"/><path d="M960.302,620.521c0,2.098,1.172,3.74,2.667,3.74c0.518,0,0.937-0.419,0.937-0.937c0-0.517-0.419-0.936-0.937-0.936   c-0.272,0-0.795-0.728-0.795-1.868c0-1.14,0.522-1.866,0.795-1.866c0.273,0,0.795,0.727,0.795,1.866   c0,0.518,0.42,0.937,0.937,0.937c0.518,0,0.937-0.419,0.937-0.937c0-2.097-1.172-3.739-2.668-3.739   C961.475,616.781,960.302,618.424,960.302,620.521z"/><path d="M980.161,570.983c-0.396-0.334-0.985-0.285-1.319,0.11c-0.334,0.395-0.284,0.986,0.11,1.319   c2.634,2.228,4.623,5.274,5.603,8.578c1.015,3.426,0.932,6.929-0.243,10.13c-0.178,0.485,0.072,1.023,0.558,1.201   c0.105,0.039,0.215,0.058,0.322,0.058c0.381,0,0.739-0.235,0.879-0.614C988.712,584.558,986.338,576.207,980.161,570.983z"/><path d="M977.166,568.615c-0.874-0.601-1.609-1.049-2.313-1.411c-0.46-0.237-1.024-0.056-1.261,0.405   c-0.236,0.46-0.056,1.024,0.404,1.26c0.632,0.325,1.303,0.735,2.109,1.289c0.162,0.111,0.347,0.165,0.529,0.165   c0.298,0,0.591-0.142,0.772-0.406C977.7,569.491,977.592,568.908,977.166,568.615z"/></g></svg>