<svg xmlns="http://www.w3.org/2000/svg" xmlns:xlink="http://www.w3.org/1999/xlink" version="1.1" x="0px" y="0px" viewBox="0 0 100 125" enable-background="new 0 0 100 100" xml:space="preserve"><g><path fill="none" d="M34.492,54.29c-0.023-0.094-0.05-0.187-0.086-0.276c-0.011-0.029-0.024-0.057-0.036-0.086   c-0.046-0.101-0.098-0.199-0.158-0.291c-0.008-0.011-0.014-0.024-0.022-0.035c-0.149-0.218-0.337-0.406-0.556-0.554   c-0.006-0.004-0.012-0.007-0.018-0.011c-0.096-0.064-0.199-0.118-0.305-0.166c-0.032-0.014-0.066-0.026-0.099-0.039   c-0.068-0.026-0.139-0.046-0.211-0.066c-0.171-0.046-0.346-0.077-0.525-0.078c-0.006,0-0.012-0.002-0.018-0.002   c-1.157,0-2.098,0.942-2.098,2.098c0,0.016,0.004,0.031,0.005,0.047c0.003,0.14,0.019,0.279,0.05,0.415   c0.011,0.048,0.029,0.092,0.043,0.139c0.031,0.104,0.067,0.206,0.115,0.303c0.02,0.042,0.044,0.083,0.067,0.124   c0.071,0.125,0.153,0.241,0.245,0.347c0.023,0.027,0.043,0.057,0.068,0.082c0.115,0.119,0.243,0.221,0.38,0.309   c0.04,0.025,0.083,0.045,0.125,0.068c0.11,0.06,0.225,0.11,0.345,0.15c0.048,0.016,0.095,0.033,0.145,0.045   c0.165,0.041,0.334,0.07,0.509,0.07c0.001,0,0.001,0,0.002,0c1.157,0,2.099-0.942,2.099-2.099c0-0.008-0.002-0.015-0.002-0.023   c-0.001-0.125-0.015-0.247-0.037-0.366C34.511,54.36,34.5,54.326,34.492,54.29z"/><path fill="none" d="M67.548,52.687c-0.007,0-0.013,0.002-0.02,0.002c-0.178,0.002-0.351,0.032-0.521,0.078   c-0.074,0.02-0.147,0.04-0.217,0.067c-0.031,0.012-0.063,0.024-0.093,0.037c-0.108,0.048-0.213,0.104-0.311,0.169   c-0.004,0.003-0.009,0.005-0.014,0.008c-0.219,0.149-0.408,0.338-0.558,0.556c-0.007,0.01-0.012,0.02-0.019,0.031   c-0.062,0.094-0.115,0.193-0.161,0.297c-0.012,0.026-0.023,0.053-0.034,0.08c-0.037,0.092-0.065,0.188-0.089,0.286   c-0.008,0.032-0.017,0.064-0.024,0.096c-0.024,0.127-0.04,0.258-0.04,0.392c0,1.157,0.942,2.099,2.099,2.099   c0.176,0,0.346-0.029,0.511-0.07c0.049-0.012,0.096-0.029,0.144-0.045c0.119-0.039,0.234-0.09,0.344-0.149   c0.042-0.023,0.086-0.043,0.127-0.069c0.137-0.087,0.264-0.189,0.378-0.306c0.027-0.028,0.048-0.06,0.073-0.089   c0.089-0.103,0.17-0.215,0.239-0.337c0.024-0.043,0.049-0.085,0.07-0.129c0.047-0.098,0.084-0.2,0.115-0.304   c0.014-0.046,0.032-0.09,0.043-0.138c0.031-0.136,0.047-0.276,0.051-0.416c0-0.016,0.005-0.031,0.005-0.047   C69.646,53.628,68.705,52.687,67.548,52.687z"/><path fill="none" d="M65.187,58.069c-1.022-0.737-1.695-1.93-1.695-3.284c0-0.259,0.03-0.51,0.076-0.757   c0.012-0.064,0.031-0.125,0.046-0.188c0.045-0.188,0.101-0.371,0.171-0.549c0.021-0.054,0.043-0.106,0.067-0.159   c0.088-0.197,0.19-0.386,0.307-0.565c0.014-0.022,0.027-0.045,0.042-0.067c0.039-0.057,0.074-0.115,0.116-0.17   c-0.338,0.023-0.675,0.044-1.013,0.065c-0.443,0.028-0.885,0.047-1.328,0.072c-1.533,0.086-3.067,0.156-4.6,0.209   c-0.534,0.019-1.068,0.038-1.602,0.052c-0.919,0.025-1.838,0.042-2.757,0.055c0.119,0.132,0.23,0.27,0.33,0.416   c0.017,0.025,0.031,0.051,0.048,0.076c0.114,0.176,0.214,0.36,0.3,0.552c0.026,0.057,0.049,0.114,0.072,0.172   c0.067,0.171,0.121,0.347,0.164,0.528c0.017,0.07,0.037,0.137,0.051,0.208c0.043,0.23,0.069,0.465,0.071,0.705   c0,0.015,0.005,0.03,0.005,0.045c0,1.236-0.567,2.33-1.441,3.075C56.812,58.513,61.004,58.357,65.187,58.069z"/><path fill="none" d="M34.819,58.069c4.175,0.287,8.36,0.443,12.546,0.492c-0.065-0.056-0.127-0.115-0.189-0.175   c-0.018-0.017-0.037-0.033-0.054-0.05c-0.168-0.171-0.323-0.356-0.46-0.558c-0.023-0.034-0.041-0.07-0.064-0.104   c-0.066-0.103-0.134-0.203-0.191-0.313c-0.038-0.072-0.067-0.148-0.1-0.223c-0.019-0.042-0.039-0.083-0.056-0.126   c-0.087-0.213-0.155-0.432-0.204-0.656c-0.01-0.045-0.016-0.09-0.025-0.136c-0.045-0.242-0.075-0.487-0.075-0.734   c0-1.042,0.406-1.984,1.055-2.703c-0.923-0.013-1.847-0.03-2.77-0.055c-0.534-0.015-1.067-0.034-1.601-0.052   c-1.535-0.053-3.07-0.123-4.605-0.209c-0.441-0.025-0.882-0.044-1.323-0.072c-0.338-0.021-0.677-0.042-1.015-0.065   c0.041,0.055,0.077,0.113,0.116,0.169c0.016,0.023,0.029,0.047,0.044,0.07c0.116,0.178,0.217,0.365,0.304,0.56   c0.024,0.054,0.047,0.109,0.069,0.164c0.069,0.175,0.124,0.354,0.168,0.539c0.016,0.066,0.036,0.13,0.048,0.198   c0.044,0.238,0.073,0.481,0.074,0.731c0,0.008,0.002,0.015,0.002,0.023C36.514,56.139,35.841,57.332,34.819,58.069z"/><path fill="none" d="M52.035,54.987c-0.023-0.092-0.049-0.182-0.084-0.268c-0.012-0.031-0.025-0.061-0.038-0.09   c-0.045-0.1-0.096-0.196-0.156-0.287c-0.008-0.012-0.015-0.025-0.023-0.037c-0.149-0.217-0.337-0.406-0.555-0.554   c-0.006-0.004-0.013-0.007-0.019-0.011c-0.096-0.064-0.198-0.118-0.304-0.165c-0.033-0.015-0.067-0.027-0.101-0.04   c-0.067-0.026-0.137-0.045-0.206-0.064c-0.175-0.047-0.354-0.08-0.539-0.08c-0.002,0-0.005-0.001-0.007-0.001   c-1.157,0-2.099,0.942-2.099,2.098c0,0.018,0.005,0.034,0.005,0.052c0.003,0.138,0.019,0.274,0.049,0.407   c0.012,0.054,0.032,0.104,0.049,0.156c0.03,0.098,0.064,0.194,0.109,0.287c0.022,0.045,0.047,0.088,0.072,0.132   c0.069,0.12,0.148,0.232,0.236,0.334c0.026,0.03,0.049,0.064,0.077,0.093c0.113,0.116,0.239,0.217,0.374,0.304   c0.043,0.027,0.089,0.048,0.134,0.073c0.107,0.058,0.219,0.107,0.335,0.146c0.049,0.016,0.098,0.034,0.149,0.046   c0.164,0.041,0.332,0.069,0.506,0.07c0.001,0,0.002,0,0.003,0c1.157,0,2.098-0.942,2.098-2.099c0-0.015-0.003-0.03-0.004-0.045   c-0.003-0.116-0.014-0.23-0.035-0.341C52.056,55.063,52.045,55.025,52.035,54.987z"/><path fill="none" d="M13.192,49.623l-3.083-0.538c-0.095-0.009-0.189-0.027-0.283-0.027c-1.345,0-2.519,0.958-2.793,2.278   c-0.172,0.833-0.021,1.604,0.409,2.247c0.43,0.643,1.086,1.076,1.846,1.219c1.166,0.22,2.337,0.418,3.507,0.619   c-0.093-0.109-0.183-0.22-0.265-0.339c-0.024-0.036-0.044-0.074-0.068-0.11c-0.065-0.101-0.132-0.2-0.188-0.308   c-0.038-0.072-0.066-0.148-0.1-0.222c-0.019-0.042-0.039-0.083-0.056-0.125c-0.087-0.213-0.155-0.432-0.205-0.658   c-0.01-0.044-0.016-0.089-0.025-0.134c-0.045-0.242-0.075-0.487-0.075-0.735c0-1.274,0.602-2.398,1.524-3.142   C13.289,49.639,13.241,49.632,13.192,49.623C13.192,49.623,13.192,49.623,13.192,49.623z"/><path fill="none" d="M52.739,30.312h-5.471c-5.499,0-10.031,4.22-10.526,9.593h26.522C62.769,34.532,58.238,30.312,52.739,30.312z"/><path fill="none" d="M20.743,48.823c1.434,0.199,2.871,0.384,4.31,0.553c1.708,0.203,3.42,0.384,5.135,0.545   c0.102,0.01,0.205,0.017,0.308,0.027c0.883,0.081,1.769,0.145,2.653,0.215c0.905,0.072,1.809,0.145,2.716,0.205   c1.045,0.069,2.091,0.128,3.138,0.182c0.83,0.043,1.661,0.079,2.492,0.112c1.068,0.043,2.136,0.085,3.205,0.111   c0.808,0.02,1.616,0.025,2.424,0.036c1.915,0.026,3.831,0.026,5.746,0c0.813-0.011,1.627-0.016,2.44-0.037   c1.065-0.026,2.129-0.068,3.194-0.111c0.836-0.033,1.672-0.07,2.507-0.113c1.042-0.054,2.084-0.112,3.125-0.181   c0.914-0.061,1.827-0.134,2.74-0.207c0.872-0.069,1.745-0.133,2.617-0.213c0.109-0.01,0.218-0.018,0.327-0.028   c1.717-0.161,3.431-0.343,5.141-0.545c1.435-0.169,2.867-0.353,4.297-0.552c0.378-0.053,0.756-0.111,1.134-0.166   c0.76-0.11,1.518-0.229,2.276-0.347l-18.545-6.451H35.884l-18.545,6.451c0.763,0.119,1.526,0.238,2.29,0.349   C20.001,48.714,20.371,48.771,20.743,48.823z"/><path fill="none" d="M17.929,52.397c-0.006-0.032-0.015-0.062-0.023-0.093c-0.024-0.1-0.053-0.197-0.091-0.291   c-0.01-0.025-0.021-0.05-0.031-0.075c-0.047-0.106-0.102-0.209-0.166-0.305c-0.005-0.008-0.009-0.015-0.014-0.023   c-0.15-0.219-0.339-0.409-0.559-0.558c-0.005-0.004-0.011-0.006-0.016-0.01c-0.096-0.064-0.199-0.118-0.306-0.166   c-0.033-0.015-0.068-0.027-0.102-0.041c-0.067-0.026-0.136-0.045-0.205-0.064c-0.175-0.047-0.354-0.08-0.537-0.08   c-0.003,0-0.006-0.001-0.008-0.001c-1.157,0-2.099,0.942-2.099,2.099c0,0.007,0.002,0.014,0.002,0.021   c0.002,0.15,0.021,0.299,0.054,0.444c0.01,0.045,0.028,0.087,0.041,0.13c0.032,0.107,0.069,0.211,0.118,0.311   c0.02,0.042,0.043,0.082,0.066,0.122c0.071,0.125,0.153,0.241,0.245,0.347c0.024,0.027,0.044,0.057,0.069,0.083   c0.114,0.118,0.242,0.22,0.379,0.308c0.04,0.026,0.085,0.046,0.127,0.069c0.109,0.06,0.223,0.11,0.342,0.149   c0.048,0.016,0.096,0.033,0.146,0.045c0.165,0.041,0.334,0.07,0.509,0.07c0.001,0,0.001,0,0.002,0c1.157,0,2.099-0.941,2.099-2.099   C17.969,52.655,17.954,52.524,17.929,52.397z"/><path fill="none" d="M89.859,49.092l-3.046,0.532c-0.048,0.008-0.097,0.015-0.145,0.024c0.921,0.744,1.524,1.869,1.524,3.142   c0,0.249-0.03,0.495-0.076,0.739c-0.008,0.043-0.014,0.086-0.023,0.128c-0.049,0.226-0.118,0.446-0.205,0.659   c-0.018,0.044-0.039,0.085-0.058,0.128c-0.033,0.074-0.062,0.151-0.1,0.223c-0.056,0.107-0.123,0.206-0.187,0.306   c-0.023,0.036-0.042,0.074-0.066,0.108c-0.082,0.119-0.172,0.231-0.265,0.34c1.17-0.201,2.341-0.399,3.507-0.619   c0.76-0.143,1.416-0.577,1.847-1.219c0.43-0.643,0.581-1.413,0.423-2.17C92.677,49.907,91.299,48.938,89.859,49.092z"/><path fill="none" d="M84.135,50.691c-0.002,0-0.005,0.001-0.007,0.001c-0.183,0.001-0.362,0.033-0.537,0.08   c-0.071,0.019-0.142,0.039-0.21,0.066c-0.033,0.013-0.066,0.025-0.098,0.039c-0.107,0.048-0.211,0.103-0.308,0.167   c-0.005,0.003-0.01,0.006-0.015,0.009c-0.219,0.149-0.409,0.339-0.558,0.558c-0.006,0.008-0.01,0.017-0.016,0.025   c-0.063,0.095-0.117,0.197-0.164,0.302c-0.011,0.025-0.022,0.051-0.032,0.076c-0.037,0.093-0.066,0.19-0.09,0.29   c-0.007,0.031-0.017,0.062-0.023,0.094c-0.024,0.128-0.04,0.258-0.04,0.393c0,1.157,0.942,2.098,2.098,2.099   c0.001,0,0.002,0,0.003,0c0.174,0,0.343-0.029,0.507-0.07c0.05-0.013,0.099-0.03,0.148-0.046c0.117-0.039,0.229-0.088,0.337-0.146   c0.044-0.024,0.091-0.045,0.133-0.072c0.135-0.086,0.261-0.187,0.374-0.303c0.028-0.029,0.051-0.063,0.078-0.094   c0.088-0.102,0.166-0.212,0.235-0.331c0.025-0.044,0.05-0.087,0.072-0.133c0.047-0.097,0.083-0.198,0.114-0.301   c0.014-0.047,0.033-0.092,0.043-0.14c0.031-0.137,0.048-0.277,0.051-0.418c0-0.015,0.004-0.029,0.004-0.044   C86.234,51.633,85.292,50.691,84.135,50.691z"/><path fill="none" d="M69.806,59.669c-0.652,0.058-1.305,0.108-1.958,0.16c-1.373,0.111-2.746,0.211-4.121,0.296   c-0.598,0.037-1.195,0.073-1.793,0.105c-1.583,0.086-3.165,0.153-4.749,0.204c-0.367,0.012-0.734,0.029-1.102,0.039   c-2.028,0.056-4.055,0.093-6.081,0.093c-2.025,0-4.052-0.037-6.08-0.093c-0.373-0.01-0.745-0.027-1.118-0.039   c-1.576-0.051-3.152-0.118-4.728-0.203c-0.604-0.032-1.207-0.069-1.81-0.106c-1.368-0.085-2.734-0.184-4.1-0.295   c-0.658-0.053-1.317-0.103-1.974-0.162c-1.499-0.135-2.995-0.289-4.491-0.453c-0.393-0.043-0.789-0.074-1.182-0.119l11.922,7.654   c2.995,1.922,6.459,2.939,10.018,2.939h7.086c3.559,0,7.023-1.017,10.018-2.939l11.921-7.654c-0.39,0.045-0.782,0.075-1.172,0.118   C72.813,59.38,71.311,59.534,69.806,59.669z"/><path fill="none" d="M29.575,57.631c-0.167-0.169-0.319-0.353-0.456-0.552c-0.026-0.037-0.046-0.077-0.071-0.115   c-0.064-0.1-0.131-0.198-0.186-0.305c-0.038-0.071-0.066-0.147-0.099-0.221c-0.019-0.042-0.039-0.083-0.057-0.126   c-0.087-0.214-0.156-0.434-0.206-0.661c-0.009-0.042-0.015-0.084-0.023-0.126c-0.045-0.244-0.076-0.491-0.076-0.739   c0-1.165,0.5-2.209,1.289-2.949c-0.042-0.004-0.083-0.009-0.125-0.013c-1.308-0.126-2.615-0.261-3.921-0.411   c-0.276-0.031-0.552-0.061-0.828-0.094c-0.199-0.024-0.4-0.039-0.599-0.064c-0.279-0.034-0.562-0.078-0.842-0.113   c-0.796-0.1-1.59-0.205-2.385-0.314c-0.503-0.069-1.005-0.138-1.507-0.21c-0.072-0.01-0.144-0.019-0.217-0.029   c0.114,0.176,0.213,0.359,0.298,0.551c0.023,0.051,0.044,0.102,0.065,0.154c0.071,0.179,0.127,0.364,0.172,0.554   c0.015,0.062,0.033,0.122,0.045,0.185c0.046,0.247,0.077,0.498,0.077,0.757c0,0,0,0,0,0c0,0,0,0,0,0   c0,1.468-0.791,2.743-1.962,3.455c3.861,0.567,7.737,1.043,11.626,1.403C29.584,57.643,29.581,57.637,29.575,57.631z"/><path fill="none" d="M80.081,52.79C80.081,52.79,80.081,52.79,80.081,52.79C80.081,52.79,80.081,52.79,80.081,52.79   c0-0.259,0.03-0.511,0.077-0.758c0.012-0.063,0.03-0.123,0.045-0.185c0.045-0.19,0.102-0.375,0.172-0.554   c0.021-0.052,0.042-0.103,0.065-0.154c0.085-0.192,0.185-0.376,0.298-0.551c-0.075,0.011-0.15,0.019-0.225,0.03   c-0.498,0.071-0.996,0.14-1.494,0.208c-0.795,0.109-1.59,0.215-2.386,0.314c-0.281,0.035-0.565,0.08-0.845,0.114   c-0.201,0.024-0.405,0.04-0.606,0.064c-0.271,0.032-0.543,0.061-0.814,0.092c-1.314,0.151-2.629,0.287-3.946,0.413   c-0.035,0.003-0.071,0.008-0.106,0.011c0.789,0.74,1.289,1.784,1.289,2.949c0,0.248-0.03,0.495-0.076,0.738   c-0.008,0.043-0.014,0.086-0.024,0.128c-0.049,0.226-0.118,0.446-0.205,0.659c-0.018,0.044-0.038,0.085-0.058,0.128   c-0.034,0.074-0.063,0.151-0.101,0.223c-0.055,0.106-0.122,0.204-0.186,0.304c-0.024,0.037-0.044,0.076-0.068,0.112   c-0.137,0.2-0.29,0.385-0.458,0.555c-0.005,0.005-0.008,0.011-0.013,0.015c3.889-0.361,7.765-0.836,11.626-1.403   C80.872,55.533,80.081,54.257,80.081,52.79z"/><path d="M94.889,50.94c-0.46-2.224-2.441-3.838-4.709-3.838c-0.299,0-0.6,0.029-0.896,0.085c-0.859,0.162-1.723,0.305-2.584,0.456   l-21.47-7.468c-0.37-6.578-5.823-11.819-12.491-11.819h-5.471c-6.669,0-12.121,5.242-12.492,11.82l-21.257,7.394l-0.212,0.074   c-0.862-0.151-1.725-0.294-2.585-0.456c-0.296-0.056-0.598-0.085-0.897-0.085c-2.268,0-4.248,1.614-4.724,3.914   c-0.264,1.275-0.011,2.574,0.714,3.656c0.725,1.082,1.83,1.811,3.109,2.052c3.668,0.692,7.361,1.284,11.067,1.79l15.393,9.882   c3.311,2.125,7.141,3.248,11.075,3.248h7.086c3.934,0,7.763-1.124,11.075-3.248l15.392-9.882c3.707-0.506,7.399-1.097,11.068-1.79   c1.28-0.241,2.385-0.97,3.109-2.053C94.915,53.59,95.168,52.291,94.889,50.94z M11.814,52.789c0,0.247,0.03,0.493,0.075,0.735   c0.008,0.045,0.015,0.09,0.025,0.134c0.049,0.225,0.118,0.445,0.205,0.658c0.017,0.043,0.037,0.083,0.056,0.125   c0.033,0.074,0.062,0.15,0.1,0.222c0.056,0.108,0.124,0.207,0.188,0.308c0.023,0.036,0.043,0.075,0.068,0.11   c0.082,0.119,0.172,0.23,0.265,0.339c-1.17-0.201-2.341-0.399-3.507-0.619c-0.76-0.143-1.415-0.576-1.846-1.219   c-0.43-0.642-0.581-1.413-0.409-2.247c0.274-1.32,1.448-2.278,2.793-2.278c0.094,0,0.188,0.017,0.283,0.027l3.083,0.538   c0,0,0,0,0,0c0.048,0.008,0.097,0.015,0.146,0.024C12.417,50.391,11.814,51.516,11.814,52.789z M47.268,30.312h5.471   c5.499,0,10.031,4.22,10.525,9.593H36.742C37.237,34.532,41.768,30.312,47.268,30.312z M35.884,41.861h28.238l18.545,6.451   c-0.758,0.118-1.516,0.237-2.276,0.347c-0.378,0.055-0.756,0.113-1.134,0.166c-1.43,0.199-2.863,0.382-4.297,0.552   c-1.71,0.203-3.424,0.385-5.141,0.545c-0.109,0.01-0.218,0.018-0.327,0.028c-0.871,0.08-1.744,0.143-2.617,0.213   c-0.913,0.073-1.825,0.146-2.74,0.207c-1.041,0.069-2.083,0.127-3.125,0.181c-0.835,0.043-1.671,0.08-2.507,0.113   c-1.064,0.042-2.129,0.084-3.194,0.111c-0.813,0.02-1.627,0.026-2.44,0.037c-1.915,0.026-3.83,0.026-5.746,0   c-0.808-0.011-1.617-0.016-2.424-0.036c-1.069-0.027-2.137-0.069-3.205-0.111c-0.831-0.033-1.662-0.07-2.492-0.112   c-1.046-0.054-2.092-0.112-3.138-0.182c-0.906-0.06-1.811-0.133-2.716-0.205c-0.885-0.07-1.77-0.134-2.653-0.215   c-0.102-0.009-0.205-0.017-0.308-0.027c-1.715-0.161-3.427-0.342-5.135-0.545c-1.439-0.17-2.876-0.354-4.31-0.553   c-0.372-0.052-0.742-0.109-1.114-0.163c-0.764-0.11-1.527-0.23-2.29-0.349L35.884,41.861z M69.646,54.785   c0,0.016-0.004,0.031-0.005,0.047c-0.003,0.14-0.019,0.28-0.051,0.416c-0.011,0.047-0.029,0.092-0.043,0.138   c-0.031,0.104-0.068,0.206-0.115,0.304c-0.021,0.044-0.046,0.087-0.07,0.129c-0.069,0.121-0.149,0.234-0.239,0.337   c-0.025,0.029-0.047,0.061-0.073,0.089c-0.114,0.117-0.241,0.219-0.378,0.306c-0.04,0.026-0.084,0.046-0.127,0.069   c-0.11,0.06-0.224,0.11-0.344,0.149c-0.048,0.016-0.095,0.032-0.144,0.045c-0.165,0.042-0.335,0.07-0.511,0.07   c-1.157,0-2.099-0.942-2.099-2.099c0-0.134,0.015-0.265,0.04-0.392c0.006-0.033,0.016-0.064,0.024-0.096   c0.024-0.098,0.052-0.194,0.089-0.286c0.011-0.027,0.022-0.053,0.034-0.08c0.046-0.103,0.099-0.203,0.161-0.297   c0.007-0.01,0.012-0.021,0.019-0.031c0.149-0.218,0.339-0.408,0.558-0.556c0.004-0.003,0.009-0.005,0.014-0.008   c0.098-0.065,0.202-0.121,0.311-0.169c0.03-0.013,0.062-0.025,0.093-0.037c0.07-0.027,0.143-0.048,0.217-0.067   c0.17-0.045,0.343-0.076,0.521-0.078c0.007,0,0.013-0.002,0.02-0.002C68.705,52.687,69.646,53.628,69.646,54.785z M54.054,55.442   c-0.003-0.241-0.029-0.475-0.071-0.705c-0.013-0.071-0.034-0.138-0.051-0.208c-0.044-0.181-0.097-0.357-0.164-0.528   c-0.023-0.058-0.047-0.115-0.072-0.172c-0.086-0.193-0.186-0.376-0.3-0.552c-0.016-0.025-0.031-0.052-0.048-0.076   c-0.1-0.147-0.212-0.284-0.33-0.416c0.919-0.013,1.838-0.03,2.757-0.055c0.534-0.015,1.068-0.034,1.602-0.052   c1.534-0.053,3.067-0.123,4.6-0.209c0.443-0.025,0.885-0.044,1.328-0.072c0.338-0.021,0.675-0.042,1.013-0.065   c-0.042,0.055-0.077,0.113-0.116,0.17c-0.015,0.022-0.027,0.045-0.042,0.067c-0.117,0.18-0.22,0.368-0.307,0.565   c-0.024,0.052-0.046,0.105-0.067,0.159c-0.07,0.178-0.126,0.36-0.171,0.549c-0.015,0.063-0.034,0.124-0.046,0.188   c-0.046,0.247-0.076,0.498-0.076,0.757c0,1.354,0.673,2.547,1.695,3.284c-4.183,0.288-8.375,0.443-12.569,0.493   c0.874-0.744,1.441-1.839,1.441-3.075C54.059,55.472,54.055,55.458,54.054,55.442z M52.101,55.487c0,1.157-0.942,2.099-2.098,2.099   c-0.001,0-0.002,0-0.003,0c-0.174,0-0.342-0.029-0.506-0.07c-0.051-0.013-0.1-0.03-0.149-0.046   c-0.116-0.039-0.228-0.088-0.335-0.146c-0.045-0.024-0.091-0.045-0.134-0.073c-0.135-0.087-0.262-0.187-0.374-0.304   c-0.028-0.029-0.05-0.063-0.077-0.093c-0.088-0.102-0.168-0.213-0.236-0.334c-0.025-0.044-0.05-0.087-0.072-0.132   c-0.045-0.093-0.079-0.189-0.109-0.287c-0.016-0.052-0.037-0.103-0.049-0.156c-0.03-0.132-0.045-0.268-0.049-0.407   c0-0.018-0.005-0.034-0.005-0.052c0-1.157,0.942-2.098,2.099-2.098c0.002,0,0.005,0.001,0.007,0.001   c0.185,0.001,0.364,0.033,0.539,0.08c0.07,0.019,0.14,0.038,0.206,0.064c0.034,0.013,0.068,0.026,0.101,0.04   c0.106,0.047,0.208,0.102,0.304,0.165c0.006,0.004,0.013,0.007,0.019,0.011c0.218,0.148,0.406,0.337,0.555,0.554   c0.008,0.012,0.015,0.025,0.023,0.037c0.06,0.091,0.111,0.187,0.156,0.287c0.013,0.03,0.026,0.06,0.038,0.09   c0.034,0.087,0.061,0.177,0.084,0.268c0.009,0.038,0.021,0.075,0.028,0.114c0.021,0.111,0.032,0.225,0.035,0.341   C52.098,55.458,52.101,55.472,52.101,55.487z M36.512,54.763c-0.001-0.25-0.03-0.493-0.074-0.731   c-0.013-0.068-0.032-0.132-0.048-0.198c-0.044-0.185-0.099-0.365-0.168-0.539c-0.022-0.056-0.045-0.11-0.069-0.164   c-0.087-0.195-0.188-0.382-0.304-0.56c-0.015-0.023-0.028-0.047-0.044-0.07c-0.039-0.057-0.074-0.115-0.116-0.169   c0.338,0.023,0.677,0.044,1.015,0.065c0.441,0.028,0.882,0.047,1.323,0.072c1.535,0.086,3.07,0.156,4.605,0.209   c0.534,0.019,1.067,0.038,1.601,0.052c0.924,0.025,1.847,0.042,2.77,0.055c-0.648,0.719-1.055,1.661-1.055,2.703   c0,0.247,0.03,0.492,0.075,0.734c0.008,0.045,0.015,0.091,0.025,0.136c0.049,0.225,0.118,0.444,0.204,0.656   c0.017,0.043,0.038,0.084,0.056,0.126c0.033,0.074,0.062,0.151,0.1,0.223c0.057,0.11,0.125,0.21,0.191,0.313   c0.022,0.034,0.04,0.07,0.064,0.104c0.138,0.201,0.292,0.387,0.46,0.558c0.017,0.018,0.036,0.033,0.054,0.05   c0.061,0.06,0.124,0.119,0.189,0.175c-4.186-0.05-8.371-0.205-12.546-0.492c1.022-0.737,1.695-1.93,1.695-3.284   C36.514,54.778,36.512,54.77,36.512,54.763z M34.557,54.785c0,1.157-0.941,2.099-2.099,2.099c-0.001,0-0.001,0-0.002,0   c-0.175,0-0.344-0.029-0.509-0.07c-0.049-0.012-0.097-0.029-0.145-0.045c-0.12-0.04-0.235-0.09-0.345-0.15   c-0.041-0.023-0.085-0.042-0.125-0.068c-0.138-0.088-0.266-0.19-0.38-0.309c-0.025-0.026-0.044-0.055-0.068-0.082   c-0.092-0.106-0.174-0.222-0.245-0.347c-0.023-0.041-0.047-0.081-0.067-0.124c-0.047-0.097-0.083-0.199-0.115-0.303   c-0.014-0.047-0.032-0.091-0.043-0.139c-0.031-0.136-0.047-0.275-0.05-0.415c0-0.016-0.005-0.031-0.005-0.047   c0-1.157,0.942-2.098,2.098-2.098c0.006,0,0.012,0.002,0.018,0.002c0.179,0.002,0.354,0.033,0.525,0.078   c0.071,0.019,0.143,0.039,0.211,0.066c0.033,0.013,0.066,0.025,0.099,0.039c0.106,0.048,0.209,0.102,0.305,0.166   c0.006,0.004,0.012,0.007,0.018,0.011c0.218,0.148,0.407,0.337,0.556,0.554c0.008,0.011,0.014,0.023,0.022,0.035   c0.06,0.092,0.112,0.189,0.158,0.291c0.013,0.028,0.025,0.057,0.036,0.086c0.035,0.089,0.063,0.181,0.086,0.276   c0.009,0.036,0.019,0.07,0.026,0.107c0.022,0.119,0.036,0.241,0.037,0.366C34.555,54.77,34.557,54.778,34.557,54.785z    M15.87,54.888c-0.001,0-0.001,0-0.002,0c-0.175,0-0.344-0.029-0.509-0.07c-0.05-0.013-0.097-0.029-0.146-0.045   c-0.119-0.039-0.233-0.089-0.342-0.149c-0.042-0.023-0.087-0.043-0.127-0.069c-0.137-0.088-0.265-0.19-0.379-0.308   c-0.025-0.026-0.045-0.056-0.069-0.083c-0.092-0.106-0.174-0.222-0.245-0.347c-0.023-0.04-0.046-0.08-0.066-0.122   c-0.048-0.1-0.086-0.204-0.118-0.311c-0.013-0.044-0.03-0.085-0.041-0.13c-0.033-0.145-0.052-0.294-0.054-0.444   c0-0.007-0.002-0.014-0.002-0.021c0-1.157,0.942-2.099,2.099-2.099c0.003,0,0.006,0.001,0.008,0.001   c0.183,0.001,0.363,0.033,0.537,0.08c0.07,0.019,0.139,0.038,0.205,0.064c0.034,0.013,0.069,0.026,0.102,0.041   c0.106,0.048,0.209,0.102,0.306,0.166c0.005,0.003,0.011,0.006,0.016,0.01c0.22,0.149,0.409,0.339,0.559,0.558   c0.005,0.007,0.009,0.015,0.014,0.023c0.064,0.096,0.118,0.198,0.166,0.305c0.011,0.025,0.021,0.05,0.031,0.075   c0.038,0.094,0.067,0.191,0.091,0.291c0.007,0.031,0.017,0.061,0.023,0.093c0.024,0.128,0.04,0.258,0.04,0.393   C17.969,53.947,17.028,54.888,15.87,54.888z M17.964,56.245c1.171-0.712,1.962-1.988,1.962-3.455c0,0,0,0,0,0c0,0,0,0,0,0   c0-0.259-0.03-0.511-0.077-0.757c-0.012-0.063-0.03-0.123-0.045-0.185c-0.045-0.19-0.102-0.375-0.172-0.554   c-0.021-0.052-0.042-0.103-0.065-0.154c-0.085-0.192-0.185-0.376-0.298-0.551c0.072,0.011,0.144,0.019,0.217,0.029   c0.502,0.072,1.004,0.142,1.507,0.21c0.794,0.109,1.589,0.214,2.385,0.314c0.28,0.035,0.563,0.08,0.842,0.113   c0.199,0.024,0.4,0.04,0.599,0.064c0.276,0.033,0.552,0.062,0.828,0.094c1.306,0.15,2.612,0.285,3.921,0.411   c0.042,0.004,0.083,0.009,0.125,0.013c-0.789,0.74-1.289,1.784-1.289,2.949c0,0.249,0.03,0.496,0.076,0.739   c0.008,0.042,0.014,0.084,0.023,0.126c0.05,0.226,0.118,0.447,0.206,0.661c0.018,0.043,0.038,0.084,0.057,0.126   c0.033,0.074,0.062,0.149,0.099,0.221c0.056,0.107,0.122,0.205,0.186,0.305c0.024,0.038,0.045,0.078,0.071,0.115   c0.136,0.199,0.289,0.383,0.456,0.552c0.005,0.005,0.009,0.012,0.014,0.017C25.7,57.288,21.824,56.813,17.964,56.245z    M63.564,66.75c-2.995,1.922-6.459,2.939-10.018,2.939H46.46c-3.559,0-7.023-1.017-10.018-2.939L24.52,59.096   c0.393,0.045,0.788,0.076,1.182,0.119c1.496,0.165,2.992,0.319,4.491,0.453c0.658,0.059,1.316,0.109,1.974,0.162   c1.366,0.11,2.732,0.21,4.1,0.295c0.603,0.037,1.206,0.073,1.81,0.106c1.576,0.085,3.152,0.152,4.728,0.203   c0.373,0.012,0.745,0.029,1.118,0.039c2.027,0.056,4.054,0.093,6.08,0.093c2.026,0,4.053-0.037,6.081-0.093   c0.367-0.01,0.734-0.027,1.102-0.039c1.583-0.052,3.166-0.119,4.749-0.204c0.598-0.032,1.195-0.068,1.793-0.105   c1.375-0.086,2.748-0.185,4.121-0.296c0.653-0.053,1.305-0.102,1.958-0.16c1.504-0.135,3.006-0.289,4.507-0.455   c0.39-0.043,0.782-0.073,1.172-0.118L63.564,66.75z M70.416,57.649c0.005-0.005,0.008-0.011,0.013-0.015   c0.168-0.17,0.321-0.355,0.458-0.555c0.025-0.036,0.045-0.075,0.068-0.112c0.064-0.1,0.13-0.197,0.186-0.304   c0.038-0.072,0.067-0.149,0.101-0.223c0.019-0.043,0.04-0.084,0.058-0.128c0.087-0.214,0.156-0.434,0.205-0.659   c0.009-0.043,0.016-0.086,0.024-0.128c0.045-0.244,0.076-0.49,0.076-0.738c0-1.165-0.5-2.209-1.289-2.949   c0.035-0.003,0.071-0.008,0.106-0.011c1.317-0.126,2.632-0.263,3.946-0.413c0.271-0.031,0.543-0.06,0.814-0.092   c0.201-0.024,0.405-0.04,0.606-0.064c0.281-0.034,0.564-0.079,0.845-0.114c0.796-0.1,1.591-0.206,2.386-0.314   c0.498-0.068,0.997-0.137,1.494-0.208c0.075-0.011,0.15-0.019,0.225-0.03c-0.113,0.176-0.213,0.359-0.298,0.551   c-0.023,0.051-0.044,0.102-0.065,0.154c-0.071,0.179-0.127,0.364-0.172,0.554c-0.015,0.062-0.033,0.122-0.045,0.185   c-0.046,0.247-0.077,0.498-0.077,0.757c0,0,0,0,0,0c0,0,0,0,0,0c0,1.467,0.791,2.743,1.962,3.455   C78.182,56.813,74.306,57.288,70.416,57.649z M86.23,52.834c-0.003,0.141-0.02,0.281-0.051,0.418   c-0.011,0.048-0.029,0.093-0.043,0.14c-0.031,0.103-0.067,0.204-0.114,0.301c-0.022,0.046-0.047,0.089-0.072,0.133   c-0.068,0.119-0.147,0.229-0.235,0.331c-0.027,0.031-0.049,0.065-0.078,0.094c-0.113,0.116-0.239,0.217-0.374,0.303   c-0.042,0.027-0.089,0.048-0.133,0.072c-0.108,0.058-0.22,0.107-0.337,0.146c-0.049,0.016-0.097,0.033-0.148,0.046   c-0.164,0.041-0.333,0.069-0.507,0.07c-0.001,0-0.002,0-0.003,0c-1.157,0-2.098-0.941-2.098-2.099c0-0.135,0.015-0.265,0.04-0.393   c0.006-0.032,0.016-0.062,0.023-0.094c0.024-0.099,0.053-0.196,0.09-0.29c0.01-0.026,0.021-0.051,0.032-0.076   c0.047-0.105,0.101-0.207,0.164-0.302c0.005-0.008,0.01-0.017,0.016-0.025c0.149-0.219,0.339-0.409,0.558-0.558   c0.005-0.003,0.01-0.006,0.015-0.009c0.097-0.065,0.201-0.119,0.308-0.167c0.032-0.014,0.065-0.026,0.098-0.039   c0.068-0.026,0.139-0.046,0.21-0.066c0.174-0.047,0.353-0.079,0.537-0.08c0.002,0,0.005-0.001,0.007-0.001   c1.157,0,2.099,0.942,2.099,2.099C86.234,52.805,86.23,52.819,86.23,52.834z M92.565,53.583c-0.431,0.642-1.086,1.076-1.847,1.219   c-1.166,0.22-2.337,0.418-3.507,0.619c0.093-0.109,0.183-0.22,0.265-0.34c0.024-0.035,0.043-0.073,0.066-0.108   c0.064-0.101,0.131-0.199,0.187-0.306c0.038-0.072,0.067-0.149,0.1-0.223c0.019-0.043,0.04-0.085,0.058-0.128   c0.087-0.214,0.156-0.434,0.205-0.659c0.009-0.042,0.016-0.085,0.023-0.128c0.045-0.244,0.076-0.49,0.076-0.739   c0-1.274-0.602-2.398-1.524-3.142c0.048-0.008,0.097-0.015,0.145-0.024l3.046-0.532c1.44-0.153,2.818,0.815,3.129,2.322   C93.146,52.17,92.995,52.94,92.565,53.583z"/></g></svg>